<svg width="500" height="500" viewBox="0 0 500 500" fill="none" xmlns="http://www.w3.org/2000/svg">
<path fill-rule="evenodd" clip-rule="evenodd" d="M266.628 89.8071V206.07H383.641V89.8071H266.628ZM266.628 238.877H389.109C404.209 238.877 416.448 226.637 416.448 211.538V73.4036V57H400.044H261.16C246.061 57 233.82 69.2402 233.82 84.3392V261.157H111.339C96.2403 261.157 84 273.397 84 288.495V427.046V443.45H116.807V427.046V293.963H233.82V416.111C233.82 431.211 246.061 443.45 261.16 443.45H400.044H416.448V427.046V288.495C416.448 273.397 404.209 261.157 389.109 261.157H266.628V238.877ZM266.628 293.963V410.643H383.641V293.963H266.628Z" fill="#606060"/>
</svg>
