<svg width="600" height="600" viewBox="0 0 600 600" fill="none" xmlns="http://www.w3.org/2000/svg">
<g clip-path="url(#clip0_544_875)">
<g clip-path="url(#clip1_544_875)">
<path d="M300 600C465.685 600 600 465.685 600 300C600 134.315 465.685 0 300 0C134.315 0 0 134.315 0 300C0 465.685 134.315 600 300 600Z" fill="#5D388C"/>
<path fill-rule="evenodd" clip-rule="evenodd" d="M110 170C110 157.574 120.074 147.5 132.5 147.5H447.499C459.925 147.5 469.999 157.574 469.999 170V375C469.999 387.426 459.925 397.5 447.499 397.5H132.5C120.074 397.5 110 387.426 110 375V170ZM350.337 255.57C364.228 263.151 364.228 283.097 350.337 290.68L262.082 338.852C248.755 346.127 232.5 336.481 232.5 321.297V224.952C232.5 209.769 248.755 200.122 262.082 207.396L350.337 255.57ZM208.75 452.5C208.75 463.546 199.796 472.5 188.75 472.5C177.704 472.5 168.75 463.546 168.75 452.5C168.75 441.453 177.704 432.5 188.75 432.5C199.796 432.5 208.75 441.453 208.75 452.5ZM219.094 460C219.686 457.597 220 455.085 220 452.5C220 449.915 219.686 447.402 219.094 445H462.499C466.642 445 469.999 448.357 469.999 452.5C469.999 456.642 466.642 460 462.499 460H219.094ZM158.406 460H117.5C113.358 460 110 456.642 110 452.5C110 448.357 113.358 445 117.5 445H158.406C157.814 447.402 157.5 449.915 157.5 452.5C157.5 455.085 157.814 457.597 158.406 460Z" fill="black" fill-opacity="0.2"/>
<path fill-rule="evenodd" clip-rule="evenodd" d="M120 160C120 147.574 130.074 137.5 142.5 137.5H457.5C469.926 137.5 480 147.574 480 160V365C480 377.426 469.926 387.5 457.5 387.5H142.5C130.074 387.5 120 377.426 120 365V160ZM360.337 245.57C374.229 253.152 374.229 273.098 360.337 280.68L272.083 328.853C258.755 336.128 242.5 326.481 242.5 311.298V214.953C242.5 199.769 258.755 190.123 272.083 197.397L360.337 245.57ZM218.75 442.5C218.75 453.546 209.797 462.5 198.75 462.5C187.704 462.5 178.75 453.546 178.75 442.5C178.75 431.454 187.704 422.5 198.75 422.5C209.797 422.5 218.75 431.454 218.75 442.5ZM229.094 450C229.686 447.598 230 445.085 230 442.5C230 439.915 229.686 437.403 229.094 435H472.5C476.642 435 480 438.358 480 442.5C480 446.643 476.642 450 472.5 450H229.094ZM168.407 450H127.5C123.358 450 120 446.643 120 442.5C120 438.358 123.358 435 127.5 435H168.407C167.814 437.403 167.5 439.915 167.5 442.5C167.5 445.085 167.814 447.598 168.407 450Z" fill="white"/>
</g>
</g>
<defs>
<clipPath id="clip0_544_875">
<rect width="600" height="600" fill="white"/>
</clipPath>
<clipPath id="clip1_544_875">
<rect width="600" height="600" fill="white"/>
</clipPath>
</defs>
</svg>
